<?xml version="1.0" encoding="UTF-8" standalone="no"?>
<svg
   xmlns:dc="http://purl.org/dc/elements/1.1/"
   xmlns:cc="http://creativecommons.org/ns#"
   xmlns:rdf="http://www.w3.org/1999/02/22-rdf-syntax-ns#"
   xmlns:svg="http://www.w3.org/2000/svg"
   xmlns="http://www.w3.org/2000/svg"
   xmlns:sodipodi="http://sodipodi.sourceforge.net/DTD/sodipodi-0.dtd"
   xmlns:inkscape="http://www.inkscape.org/namespaces/inkscape"
   inkscape:version="1.0 (4035a4fb49, 2020-05-01)"
   sodipodi:docname="ferry-north-east.svg"
   id="svg6"
   xml:space="preserve"
   enable-background="new 0 0 100 100"
   viewBox="0 0 100 100"
   y="0px"
   x="0px"
   version="1.1"
   fill="#479429"
   width="100px"
   height="100px"><metadata
     id="metadata12"><rdf:RDF><cc:Work
         rdf:about=""><dc:format>image/svg+xml</dc:format><dc:type
           rdf:resource="http://purl.org/dc/dcmitype/StillImage" /><dc:title></dc:title></cc:Work></rdf:RDF></metadata><defs
     id="defs10" /><sodipodi:namedview
     inkscape:current-layer="svg6"
     inkscape:window-maximized="1"
     inkscape:window-y="-11"
     inkscape:window-x="-11"
     inkscape:cy="50"
     inkscape:cx="50"
     inkscape:zoom="6.82"
     showgrid="false"
     id="namedview8"
     inkscape:window-height="986"
     inkscape:window-width="1920"
     inkscape:pageshadow="2"
     inkscape:pageopacity="0"
     guidetolerance="10"
     gridtolerance="10"
     objecttolerance="10"
     borderopacity="1"
     bordercolor="#666666"
     pagecolor="#ffffff" /><path
     style="stroke-width:0.5"
     id="path2"
     d="m 67.227065,42.222916 -0.318905,1.382394 -0.517955,1.30638 -0.711703,1.222941 -1.382394,1.603011 -1.706249,1.251579 -1.561292,0.786303 -1.749735,0.380777 -0.317845,1.382747 -0.850296,1.941362 -1.762817,2.204759 -1.699885,1.257943 -1.941361,0.850296 -1.38204,0.317137 -0.552958,2.04566 -0.988889,1.872772 -1.382747,1.603365 -1.699885,1.257943 -1.941362,0.850296 -1.382747,0.317844 -0.58407,2.414063 -1.385929,2.071116 -0.961312,1.044043 -1.699885,1.257943 -1.941361,0.850296 -1.382041,0.317137 -1.291884,-1.291884 1.374969,-0.324208 1.320169,-0.519017 1.782262,-1.133138 1.500128,-1.500128 1.073034,-1.46265 0.579121,-1.639781 0.324915,-1.375676 2.037175,-0.559321 1.661701,-0.79691 0.779231,-0.620132 1.499774,-1.499774 1.134199,-1.783323 0.613062,-1.619982 0.222738,-1.067731 2.038943,-0.561089 1.277742,-0.614476 1.159301,-0.801505 1.500127,-1.500127 1.13526,-1.781556 0.518309,-1.319461 0.324916,-1.375677 2.038235,-0.560382 1.87348,-0.988181 0.560028,-0.422143 1.505431,-1.492703 1.126774,-1.788626 0.517956,-1.30638 0.324916,-1.375676 1.292591,1.292591" /><path
     style="stroke-width:0.5"
     id="path4"
     d="m 62.146503,44.690719 -2.037882,-9.626552 -5.826206,5.826207 -1.956211,-0.629679 -2.613113,2.613113 -2.044599,-0.539169 2.708926,-2.708926 -3.71125,-1.208799 -2.881107,2.881107 -8.431541,-2.237993 -0.663266,0.663266 1.761403,0.891662 -1.091773,1.091772 0.905804,0.905804 1.389465,-1.389465 4.152838,2.107179 0.04172,2.225265 -8.107333,8.107332 -5.0993,-1.354463 -2.645994,2.645994 3.226882,3.226882 -1.479974,1.479974 0.60104,1.99687 L 45.028509,44.974622 46.7489,45.838 28.931576,63.655323 l 0.594324,1.991566 -1.237084,1.237083 4.54104,4.54104 1.374969,-0.325622 1.941362,-0.850296 1.699885,-1.257943 1.383454,-1.604072 0.711703,-1.221527 0.517249,-1.319815 0.325976,-1.375322 2.037882,-0.560029 1.873125,-0.989242 1.105208,-0.884591 1.382394,-1.603011 0.989242,-1.873126 0.560029,-2.037882 2.038235,-0.560382 1.872066,-0.988182 1.603011,-1.382393 1.265367,-1.70731 0.850296,-1.941361 0.325623,-1.374969 2.010658,-0.546948 1.857923,-0.972625 0.558968,-0.408354 1.029901,-0.94717" /></svg>
