<svg height='100px' width='100px'  fill="#479429" xmlns="http://www.w3.org/2000/svg" xmlns:xlink="http://www.w3.org/1999/xlink" version="1.1" x="0px" y="0px" viewBox="0 0 100 100" enable-background="new 0 0 100 100" xml:space="preserve"><path d="M5.057,72.947l2.406,1.504l2.58,1.115l2.736,0.723l4.222,0.312l4.183-0.643l3.32-1.096l3.013-1.936  l2.405,1.506l3.948,1.543l5.611,0.625l4.183-0.625l3.948-1.543l2.403-1.506l3.675,2.111l4.047,1.25l4.223,0.312l4.183-0.625  l3.948-1.543l2.405-1.506l4.24,2.588l4.889,0.969l2.836,0.117l4.183-0.625l3.948-1.543l2.403-1.506v-3.654l-2.403,1.486  l-2.601,1.133l-4.123,0.918h-4.243l-3.586-0.551l-3.138-1.5l-2.405-1.486l-3.672,2.09l-3.477,1.223l-1.979,0.225h-4.242  l-4.126-0.918l-3.158-1.424l-1.825-1.195l-3.677,2.09l-2.676,0.938l-2.773,0.506h-4.243l-4.125-0.914l-2.599-1.133l-2.405-1.486  l-3.675,2.09l-4.047,1.252l-1.389,0.195l-4.24,0.018l-4.123-0.936l-2.58-1.115L5.06,69.291v3.656"></path><path d="M15.732,69.252L5,52.756h16.479l1.876-3.657h7.391l2.129-3.654h-7.662l3.539-6.958h8.149l8.759-15.089h1.876  l-1.23,3.752h3.088v2.562h-3.93l-2.893,8.853l3.088,3.206h22.931l5.296-9.127h7.484v9.127h4.186l1.974,3.674H40.342l-1.212,3.654  h50.395l1.976,3.657H95V65.6l-2.405,1.484l-3.948,1.543l-4.183,0.625l-4.225-0.312l-2.734-0.721l-2.598-1.135L72.501,65.6  l-3.674,2.09l-4.048,1.25l-2.814,0.312l-4.222-0.312l-4.048-1.25l-3.674-2.09l-3.675,2.09l-4.045,1.25l-4.222,0.312l-4.204-0.625  l-3.948-1.543L27.522,65.6l-3.617,2.07l-4.003,1.252l-1.368,0.213l-2.796,0.117"></path></svg>