<?xml version="1.0" encoding="UTF-8" standalone="no"?>
<svg
   xmlns:dc="http://purl.org/dc/elements/1.1/"
   xmlns:cc="http://creativecommons.org/ns#"
   xmlns:rdf="http://www.w3.org/1999/02/22-rdf-syntax-ns#"
   xmlns:svg="http://www.w3.org/2000/svg"
   xmlns="http://www.w3.org/2000/svg"
   xmlns:sodipodi="http://sodipodi.sourceforge.net/DTD/sodipodi-0.dtd"
   xmlns:inkscape="http://www.inkscape.org/namespaces/inkscape"
   sodipodi:docname="terminal-with-bulletin.svg"
   inkscape:version="1.0 (4035a4fb49, 2020-05-01)"
   inkscape:export-ydpi="29.42"
   inkscape:export-xdpi="29.42"
   inkscape:export-filename="C:\Dropbox\Bright Rain Dev\wa-ferry-tracks\wa-state-ferry-tracker\assets\terminal-bulletin.png"
   id="svg8"
   version="1.1"
   viewBox="0 0 69.070481 55.260469"
   height="55.260468mm"
   width="69.07048mm">
  <defs
     id="defs2" />
  <sodipodi:namedview
     inkscape:window-maximized="1"
     inkscape:window-y="-11"
     inkscape:window-x="-11"
     inkscape:window-height="986"
     inkscape:window-width="1920"
     showgrid="false"
     inkscape:document-rotation="0"
     inkscape:current-layer="layer1"
     inkscape:document-units="mm"
     inkscape:cy="184.95263"
     inkscape:cx="4.2930912"
     inkscape:zoom="1.3353261"
     inkscape:pageshadow="2"
     inkscape:pageopacity="0.0"
     borderopacity="1.0"
     bordercolor="#666666"
     pagecolor="#ffffff"
     id="base" />
  <metadata
     id="metadata5">
    <rdf:RDF>
      <cc:Work
         rdf:about="">
        <dc:format>image/svg+xml</dc:format>
        <dc:type
           rdf:resource="http://purl.org/dc/dcmitype/StillImage" />
        <dc:title></dc:title>
      </cc:Work>
    </rdf:RDF>
  </metadata>
  <g
     transform="translate(-20.998138,-12.954917)"
     id="layer1"
     inkscape:groupmode="layer"
     inkscape:label="Layer 1">
    <g
       transform="matrix(0.45707558,0,0,0.44690982,10.028324,2.1245044)"
       id="g77"
       style="fill:#d22800">
      <path
         d="m 49.8,24.234 c -14.249,0 -25.8,11.551 -25.8,25.8 0,14.249 11.551,25.8 25.8,25.8 14.249,0 25.8,-11.551 25.8,-25.8 0,-14.249 -11.551,-25.8 -25.8,-25.8 z M 49.704,63.28 c -1.438,0 -2.604,-1.026 -2.604,-2.292 0,-1.266 1.166,-2.292 2.604,-2.292 1.438,0 2.604,1.026 2.604,2.292 0,1.266 -1.165,2.292 -2.604,2.292 z m 1.952,-6.8 H 47.49 L 46.188,35.437 h 7.291 z"
         id="path66" />
    </g>
    <g
       transform="matrix(0.41776913,0,0,0.41776913,25.32741,15.614907)"
       id="g54"
       style="fill:#007b5f">
      <path
         d="m 115.6,86.729 v 28.942 c 0.741,0.474 1.597,0.738 2.5,0.738 0.904,0 1.76,-0.265 2.5,-0.738 V 86.729 c 0,-1.381 -1.119,-2.5 -2.5,-2.5 -1.381,0 -2.5,1.119 -2.5,2.5 z"
         id="path34" />
      <path
         d="m 90.717,108.447 c 2.03,-1.192 4.285,-1.949 6.661,-2.194 l -1.229,-4.692 12.209,-6.916 c 1.201,-0.68 1.623,-2.206 0.942,-3.407 -0.681,-1.202 -2.205,-1.622 -3.407,-0.943 l -11.055,6.263 -1.15,-4.387 24.412,-14.357 24.411,14.356 -1.15,4.388 -11.055,-6.263 c -1.203,-0.68 -2.728,-0.26 -3.407,0.943 -0.681,1.201 -0.259,2.728 0.942,3.407 l 12.209,6.916 -1.229,4.692 c 2.376,0.245 4.631,1.002 6.661,2.194 l 4.471,-17.064 c 0.397,-1.515 -0.261,-3.11 -1.611,-3.904 l -7.073,-4.16 V 64.847 c 0,-1.933 -1.567,-3.5 -3.5,-3.5 h -7.192 l -3.328,-11.689 c -0.429,-1.504 -1.803,-2.542 -3.366,-2.542 H 121.6 V 43.5 c 0,-1.933 -1.567,-3.5 -3.5,-3.5 -1.933,0 -3.5,1.567 -3.5,3.5 v 3.616 h -2.283 c -1.563,0 -2.938,1.038 -3.366,2.542 l -3.328,11.689 H 98.43 c -1.933,0 -3.5,1.567 -3.5,3.5 V 83.32 l -7.073,4.16 c -1.35,0.794 -2.008,2.389 -1.611,3.904 z m 24.242,-54.331 h 3.141 3.14 l 2.059,7.231 h -5.199 -5.199 z m -13.03,14.231 h 6.323 c 0.005,0 0.009,0.001 0.014,0.001 0.004,0 0.008,-0.001 0.012,-0.001 h 9.821 9.82 c 0.004,0 0.008,0.001 0.012,0.001 0.005,0 0.009,-0.001 0.014,-0.001 h 6.323 v 10.855 l -14.395,-8.466 c -0.042,-0.025 -0.088,-0.037 -0.13,-0.06 -0.11,-0.058 -0.221,-0.108 -0.336,-0.154 -0.103,-0.042 -0.204,-0.081 -0.309,-0.112 -0.108,-0.032 -0.217,-0.055 -0.328,-0.077 -0.113,-0.022 -0.224,-0.043 -0.337,-0.054 -0.111,-0.011 -0.222,-0.011 -0.334,-0.011 -0.112,0 -0.223,0.001 -0.334,0.011 -0.113,0.011 -0.224,0.032 -0.337,0.054 -0.111,0.022 -0.22,0.045 -0.328,0.077 -0.105,0.031 -0.206,0.071 -0.309,0.112 -0.115,0.046 -0.226,0.096 -0.336,0.154 -0.043,0.023 -0.088,0.035 -0.13,0.06 l -14.396,8.466 z"
         id="path36" />
      <path
         d="M 70.784,83.808 H 8.531 c -1.933,0 -3.5,1.567 -3.5,3.5 0,1.933 1.567,3.5 3.5,3.5 h 3.088 v 20.088 c 2.01,-1.946 4.398,-3.33 7,-4.077 V 90.807 h 9.331 v 16.037 c 2.617,0.768 5.01,2.18 7,4.153 v -20.19 h 9.331 v 25.094 c 0.463,-0.232 0.898,-0.525 1.27,-0.908 l 3.667,-3.775 c 0.642,-0.661 1.339,-1.245 2.063,-1.783 V 90.807 h 9.331 v 15.381 c 0.188,-0.006 0.374,-0.028 0.563,-0.028 2.251,0 4.427,0.443 6.437,1.284 V 90.807 h 3.172 c 5.586,0 10.131,-4.544 10.131,-10.131 0,-5.041 -3.705,-9.222 -8.533,-9.993 V 50.305 c 3.358,-1.063 5.8,-4.208 5.8,-7.914 0,-4.577 -3.724,-8.3 -8.3,-8.3 -4.576,0 -8.3,3.724 -8.3,8.3 0,3.706 2.442,6.85 5.8,7.914 v 7.697 H 8.531 c -1.381,0 -2.5,1.119 -2.5,2.5 0,1.381 1.119,2.5 2.5,2.5 h 15.401 v 7.543 H 8.531 c -1.933,0 -3.5,1.567 -3.5,3.5 0,1.933 1.567,3.5 3.5,3.5 h 62.253 c 1.727,0 3.131,1.405 3.131,3.131 0,1.726 -1.404,3.132 -3.131,3.132 z M 45.77,70.545 H 28.932 V 63.002 H 45.77 Z m 21.613,0 H 50.77 v -7.543 h 16.613 z m 2.5,-24.853 c -1.82,0 -3.3,-1.48 -3.3,-3.3 0,-1.82 1.48,-3.3 3.3,-3.3 1.82,0 3.3,1.48 3.3,3.3 0,1.82 -1.48,3.3 -3.3,3.3 z"
         id="path38" />
      <path
         d="m 153.98,119.9 -6.741,-6.941 c -2.692,-2.771 -6.303,-4.298 -10.165,-4.298 -3.863,0 -7.473,1.526 -10.164,4.298 l -3.668,3.776 c -1.36,1.401 -3.187,2.174 -5.142,2.174 -1.956,0 -3.782,-0.772 -5.144,-2.175 l -3.667,-3.775 c -2.691,-2.771 -6.301,-4.298 -10.165,-4.298 -3.863,0 -7.473,1.526 -10.165,4.298 l -3.667,3.776 c -1.361,1.401 -3.188,2.174 -5.143,2.174 -1.955,0 -3.781,-0.772 -5.143,-2.175 l -3.667,-3.775 c -2.691,-2.771 -6.301,-4.298 -10.165,-4.298 -3.863,0 -7.473,1.526 -10.165,4.298 l -3.667,3.776 c -1.361,1.401 -3.188,2.174 -5.143,2.174 -1.956,0 -3.782,-0.772 -5.143,-2.175 l -3.667,-3.775 c -2.692,-2.771 -6.302,-4.298 -10.165,-4.298 -3.863,0 -7.473,1.526 -10.189,4.324 l -6.604,6.941 c -1.333,1.4 -1.277,3.615 0.123,4.947 1.4,1.334 3.616,1.279 4.948,-0.123 l 6.58,-6.915 c 1.362,-1.402 3.188,-2.175 5.143,-2.175 1.955,0 3.781,0.772 5.143,2.175 l 3.666,3.774 c 2.691,2.772 6.301,4.299 10.166,4.299 3.864,0 7.474,-1.526 10.165,-4.298 l 3.667,-3.775 c 1.362,-1.402 3.188,-2.175 5.143,-2.175 1.955,0 3.781,0.772 5.143,2.175 l 3.667,3.774 c 2.691,2.772 6.301,4.299 10.165,4.299 3.864,0 7.474,-1.526 10.165,-4.298 l 3.667,-3.775 c 1.362,-1.402 3.188,-2.175 5.143,-2.175 1.955,0 3.781,0.772 5.143,2.175 l 3.666,3.774 c 2.69,2.772 6.301,4.299 10.166,4.299 3.864,0 7.475,-1.526 10.164,-4.298 l 3.667,-3.775 c 1.362,-1.402 3.188,-2.175 5.143,-2.175 1.955,0 3.781,0.772 5.144,2.175 l 6.741,6.941 c 1.347,1.388 3.563,1.418 4.949,0.072 1.386,-1.345 1.418,-3.561 0.072,-4.948 z"
         id="path40" />
    </g>
  </g>
</svg>
