<svg height='100px' width='100px'  fill="#007b5f" xmlns="http://www.w3.org/2000/svg" xmlns:xlink="http://www.w3.org/1999/xlink" version="1.1" x="0px" y="0px" viewBox="0 0 160 160" style="enable-background:new 0 0 160 160;" xml:space="preserve"><path d="M115.6,86.729v28.942c0.741,0.474,1.597,0.738,2.5,0.738c0.904,0,1.76-0.265,2.5-0.738V86.729c0-1.381-1.119-2.5-2.5-2.5  S115.6,85.348,115.6,86.729z"></path><path d="M90.717,108.447c2.03-1.192,4.285-1.949,6.661-2.194l-1.229-4.692l12.209-6.916c1.201-0.68,1.623-2.206,0.942-3.407  c-0.681-1.202-2.205-1.622-3.407-0.943l-11.055,6.263l-1.15-4.387L118.1,77.814l24.411,14.356l-1.15,4.388l-11.055-6.263  c-1.203-0.68-2.728-0.26-3.407,0.943c-0.681,1.201-0.259,2.728,0.942,3.407l12.209,6.916l-1.229,4.692  c2.376,0.245,4.631,1.002,6.661,2.194l4.471-17.064c0.397-1.515-0.261-3.11-1.611-3.904l-7.073-4.16V64.847  c0-1.933-1.567-3.5-3.5-3.5h-7.192l-3.328-11.689c-0.429-1.504-1.803-2.542-3.366-2.542H121.6v-3.616c0-1.933-1.567-3.5-3.5-3.5  s-3.5,1.567-3.5,3.5v3.616h-2.283c-1.563,0-2.938,1.038-3.366,2.542l-3.328,11.689h-7.193c-1.933,0-3.5,1.567-3.5,3.5V83.32  l-7.073,4.16c-1.35,0.794-2.008,2.389-1.611,3.904L90.717,108.447z M114.959,54.116h3.141h3.14l2.059,7.231H118.1h-5.199  L114.959,54.116z M101.929,68.347h6.323c0.005,0,0.009,0.001,0.014,0.001c0.004,0,0.008-0.001,0.012-0.001h9.821h9.82  c0.004,0,0.008,0.001,0.012,0.001c0.005,0,0.009-0.001,0.014-0.001h6.323v10.855l-14.395-8.466c-0.042-0.025-0.088-0.037-0.13-0.06  c-0.11-0.058-0.221-0.108-0.336-0.154c-0.103-0.042-0.204-0.081-0.309-0.112c-0.108-0.032-0.217-0.055-0.328-0.077  c-0.113-0.022-0.224-0.043-0.337-0.054c-0.111-0.011-0.222-0.011-0.334-0.011c-0.112,0-0.223,0.001-0.334,0.011  c-0.113,0.011-0.224,0.032-0.337,0.054c-0.111,0.022-0.22,0.045-0.328,0.077c-0.105,0.031-0.206,0.071-0.309,0.112  c-0.115,0.046-0.226,0.096-0.336,0.154c-0.043,0.023-0.088,0.035-0.13,0.06l-14.396,8.466V68.347z"></path><path d="M70.784,83.808H8.531c-1.933,0-3.5,1.567-3.5,3.5s1.567,3.5,3.5,3.5h3.088v20.088c2.01-1.946,4.398-3.33,7-4.077V90.807  h9.331v16.037c2.617,0.768,5.01,2.18,7,4.153v-20.19h9.331v25.094c0.463-0.232,0.898-0.525,1.27-0.908l3.667-3.775  c0.642-0.661,1.339-1.245,2.063-1.783V90.807h9.331v15.381c0.188-0.006,0.374-0.028,0.563-0.028c2.251,0,4.427,0.443,6.437,1.284  V90.807h3.172c5.586,0,10.131-4.544,10.131-10.131c0-5.041-3.705-9.222-8.533-9.993V50.305c3.358-1.063,5.8-4.208,5.8-7.914  c0-4.577-3.724-8.3-8.3-8.3s-8.3,3.724-8.3,8.3c0,3.706,2.442,6.85,5.8,7.914v7.697H8.531c-1.381,0-2.5,1.119-2.5,2.5  s1.119,2.5,2.5,2.5h15.401v7.543H8.531c-1.933,0-3.5,1.567-3.5,3.5s1.567,3.5,3.5,3.5h62.253c1.727,0,3.131,1.405,3.131,3.131  S72.511,83.808,70.784,83.808z M45.77,70.545H28.932v-7.543H45.77V70.545z M67.383,70.545H50.77v-7.543h16.613V70.545z   M69.883,45.692c-1.82,0-3.3-1.48-3.3-3.3s1.48-3.3,3.3-3.3s3.3,1.48,3.3,3.3S71.703,45.692,69.883,45.692z"></path><path d="M153.98,119.9l-6.741-6.941c-2.692-2.771-6.303-4.298-10.165-4.298c-3.863,0-7.473,1.526-10.164,4.298l-3.668,3.776  c-1.36,1.401-3.187,2.174-5.142,2.174c-1.956,0-3.782-0.772-5.144-2.175l-3.667-3.775c-2.691-2.771-6.301-4.298-10.165-4.298  c-3.863,0-7.473,1.526-10.165,4.298l-3.667,3.776c-1.361,1.401-3.188,2.174-5.143,2.174s-3.781-0.772-5.143-2.175l-3.667-3.775  c-2.691-2.771-6.301-4.298-10.165-4.298c-3.863,0-7.473,1.526-10.165,4.298l-3.667,3.776c-1.361,1.401-3.188,2.174-5.143,2.174  c-1.956,0-3.782-0.772-5.143-2.175l-3.667-3.775c-2.692-2.771-6.302-4.298-10.165-4.298s-7.473,1.526-10.189,4.324l-6.604,6.941  c-1.333,1.4-1.277,3.615,0.123,4.947c1.4,1.334,3.616,1.279,4.948-0.123l6.58-6.915c1.362-1.402,3.188-2.175,5.143-2.175  s3.781,0.772,5.143,2.175l3.666,3.774c2.691,2.772,6.301,4.299,10.166,4.299c3.864,0,7.474-1.526,10.165-4.298l3.667-3.775  c1.362-1.402,3.188-2.175,5.143-2.175s3.781,0.772,5.143,2.175l3.667,3.774c2.691,2.772,6.301,4.299,10.165,4.299  s7.474-1.526,10.165-4.298l3.667-3.775c1.362-1.402,3.188-2.175,5.143-2.175s3.781,0.772,5.143,2.175l3.666,3.774  c2.69,2.772,6.301,4.299,10.166,4.299c3.864,0,7.475-1.526,10.164-4.298l3.667-3.775c1.362-1.402,3.188-2.175,5.143-2.175  s3.781,0.772,5.144,2.175l6.741,6.941c1.347,1.388,3.563,1.418,4.949,0.072C155.294,123.503,155.326,121.287,153.98,119.9z"></path></svg>